# xmcd CD database file generated by Grip 2.96
# 
# Track frame offsets:
#       183
#       10830
#       26565
#       41580
#       55673
#       67848
#       77930
#       95590
#       107698
#       119943
#       134783
#       153665
#       170295
#       194370
#       207223
#       227185
#       242988
#       257318
#       278198
#       293813
#       318720
# 
# Disc length: 4519 seconds
# 
# Revision: 0
# Processed by: cddbd v1.4PL0 Copyright (c) Steve Scherf et al.
# Submitted via: Grip 2.96
# 
DISCID=3611a515
DTITLE=Albert King - Years Gone By
DYEAR=1900
DGENRE=
TTITLE0=Wrapped up in love again
TTITLE1=Shimmy shimmy walk
TTITLE2=Cockroach
TTITLE3=Killing floor
TTITLE4=Lonely man
TTITLE5=If the washing don't get you, the rinsing will
TTITLE6=Drowning on dry land
TTITLE7=Drowning on dry land (instrumental)
TTITLE8=Heart fixing business
TTITLE9=You threw your love on me too strong
TTITLE10=The sky is crying 
TTITLE11=Can't you see what you're doing to me
TTITLE12=Cold sweat
TTITLE13=As the years go passing by
TTITLE14=Drowning on dry land (alternative)
TTITLE15=Don't you lie to me
TTITLE16=Shake 'em down
TTITLE17=I believe to my soul
TTITLE18=Heart fixing business (2)
TTITLE19=The sky is crying (alternative)
TTITLE20=You're treating me mean
EXTD=
EXTT0=
EXTT1=
EXTT2=
EXTT3=
EXTT4=
EXTT5=
EXTT6=
EXTT7=
EXTT8=
EXTT9=
EXTT10=
EXTT11=
EXTT12=
EXTT13=
EXTT14=
EXTT15=
EXTT16=
EXTT17=
EXTT18=
EXTT19=
EXTT20=
PLAYORDER=
